<svg width="100" height="100" viewBox="0 0 100 100" fill="none" xmlns="http://www.w3.org/2000/svg">
<rect width="100" height="100" fill="white"/>
<path d="M46.3809 15H65.7487L50.8436 59.6244C49.6557 63.1807 49.0618 64.9589 49.4166 66.3745C49.7271 67.6135 50.5002 68.6868 51.577 69.3739C52.8072 70.1588 54.682 70.1588 58.4315 70.1588H77.447L74.3154 79.5345C73.6589 81.4999 73.3307 82.4827 72.7226 83.2092C72.1856 83.8508 71.4962 84.3473 70.7175 84.6534C69.8358 85 68.7997 85 66.7275 85H34.1066C30.357 85 28.4823 85 27.2521 84.215C26.1752 83.5279 25.4022 82.4547 25.0916 81.2156C24.7368 79.8001 25.3308 78.0219 26.5186 74.4655L34.6905 50L40.5357 32.5L43.4583 23.75V23.75C44.2748 21.3056 43.0167 18.6524 40.6074 17.7376L33.4046 15.0024L46.3809 15Z" fill="#8459FF"/>
</svg>
